<?xml version="1.0" encoding="UTF-8" standalone="no"?>
<!-- Created with Inkscape (http://www.inkscape.org/) -->

<svg
   xmlns:dc="http://purl.org/dc/elements/1.1/"
   xmlns:cc="http://creativecommons.org/ns#"
   xmlns:rdf="http://www.w3.org/1999/02/22-rdf-syntax-ns#"
   xmlns:svg="http://www.w3.org/2000/svg"
   xmlns="http://www.w3.org/2000/svg"
   xmlns:sodipodi="http://sodipodi.sourceforge.net/DTD/sodipodi-0.dtd"
   xmlns:inkscape="http://www.inkscape.org/namespaces/inkscape"
   width="21.174341mm"
   height="24.046156mm"
   viewBox="0 0 21.174342 24.046156"
   version="1.1"
   id="svg8"
   inkscape:version="0.92.4 (5da689c313, 2019-01-14)"
   sodipodi:docname="armor.svg">
  <defs
     id="defs2" />
  <sodipodi:namedview
     id="base"
     pagecolor="#ffffff"
     bordercolor="#666666"
     borderopacity="1.0"
     inkscape:pageopacity="0.0"
     inkscape:pageshadow="2"
     inkscape:zoom="1.979899"
     inkscape:cx="62.091908"
     inkscape:cy="60.926135"
     inkscape:document-units="mm"
     inkscape:current-layer="layer1"
     showgrid="false"
     fit-margin-top="0"
     fit-margin-left="0"
     fit-margin-right="0"
     fit-margin-bottom="0"
     inkscape:window-width="836"
     inkscape:window-height="519"
     inkscape:window-x="636"
     inkscape:window-y="219"
     inkscape:window-maximized="0" />
  <metadata
     id="metadata5">
    <rdf:RDF>
      <cc:Work
         rdf:about="">
        <dc:format>image/svg+xml</dc:format>
        <dc:type
           rdf:resource="http://purl.org/dc/dcmitype/StillImage" />
        <dc:title></dc:title>
      </cc:Work>
    </rdf:RDF>
  </metadata>
  <g
     inkscape:label="Layer 1"
     inkscape:groupmode="layer"
     id="layer1"
     transform="translate(-80.627604,-150.13759)">
    <path
       style="fill:#000000;stroke-width:0.26458332"
       d="m 89.033882,173.76594 c -1.226981,-0.65496 -4.267926,-3.06893 -6.605587,-5.24366 l -1.137624,-1.05833 -0.154761,-4.36563 c -0.08512,-2.40109 -0.234309,-5.85719 -0.331534,-7.68022 l -0.176772,-3.31459 0.70986,-0.32343 c 1.062997,-0.48433 1.827923,-0.39544 2.908747,0.33803 0.536092,0.3638 1.237316,0.65884 1.558276,0.65564 0.917879,-0.009 2.809035,-0.97141 3.62429,-1.84415 0.579531,-0.62039 0.967982,-0.79501 1.76178,-0.79197 1.10633,0.004 1.64136,0.24902 3.125388,1.42991 l 0.97062,0.77234 2.09211,-0.7062 c 4.476245,-1.51097 4.572175,-1.37169 4.362915,6.3345 -0.19418,7.15068 -0.46428,9.24696 -1.30789,10.15056 -0.34308,0.36747 -0.809885,1.0374 -1.037345,1.48875 -0.75124,1.49064 -2.43594,2.65091 -6.07197,4.18181 -1.270971,0.53512 -3.264586,0.52427 -4.290503,-0.0234 z"
       id="path826"
       inkscape:connector-curvature="0"
       inkscape:export-filename="C:\Users\79c1\AppData\Local\FoundryVTT\Data\systems\icrpg\images\shield.png"
       inkscape:export-xdpi="300"
       inkscape:export-ydpi="300" />
  </g>
</svg>
