<?xml version="1.0" encoding="UTF-8" standalone="no"?>
<!-- Created with Inkscape (http://www.inkscape.org/) -->

<svg
   xmlns:dc="http://purl.org/dc/elements/1.1/"
   xmlns:cc="http://creativecommons.org/ns#"
   xmlns:rdf="http://www.w3.org/1999/02/22-rdf-syntax-ns#"
   xmlns:svg="http://www.w3.org/2000/svg"
   xmlns="http://www.w3.org/2000/svg"
   xmlns:sodipodi="http://sodipodi.sourceforge.net/DTD/sodipodi-0.dtd"
   xmlns:inkscape="http://www.inkscape.org/namespaces/inkscape"
   width="16.074524mm"
   height="15.05855mm"
   viewBox="0 0 16.074525 15.05855"
   version="1.1"
   id="svg8"
   inkscape:version="0.92.4 (5da689c313, 2019-01-14)"
   sodipodi:docname="d10.svg">
  <defs
     id="defs2">
    <pattern
       y="0"
       x="0"
       height="6"
       width="6"
       patternUnits="userSpaceOnUse"
       id="EMFhbasepattern" />
  </defs>
  <sodipodi:namedview
     id="base"
     pagecolor="#ffffff"
     bordercolor="#666666"
     borderopacity="1.0"
     inkscape:pageopacity="0.0"
     inkscape:pageshadow="2"
     inkscape:zoom="2.8"
     inkscape:cx="-13.533736"
     inkscape:cy="36.953423"
     inkscape:document-units="mm"
     inkscape:current-layer="layer1"
     showgrid="false"
     fit-margin-top="0"
     fit-margin-left="0"
     fit-margin-right="0"
     fit-margin-bottom="0"
     inkscape:window-width="1135"
     inkscape:window-height="624"
     inkscape:window-x="694"
     inkscape:window-y="238"
     inkscape:window-maximized="0" />
  <metadata
     id="metadata5">
    <rdf:RDF>
      <cc:Work
         rdf:about="">
        <dc:format>image/svg+xml</dc:format>
        <dc:type
           rdf:resource="http://purl.org/dc/dcmitype/StillImage" />
        <dc:title />
      </cc:Work>
    </rdf:RDF>
  </metadata>
  <g
     inkscape:label="Layer 1"
     inkscape:groupmode="layer"
     id="layer1"
     transform="translate(-79.844181,-157.15988)">
    <path
       style="fill:#000000;stroke-width:0.99999994"
       d="m 45.408203,0 c 0,0 -38.2204956,4.2499383 -40.3164061,9.4570312 L 0,21.324219 C 3.9393676,36.964131 15.642578,56.914062 15.642578,56.914062 29.670321,54.527669 39.829545,52.820146 53.720703,50.070312 55.139829,50.376568 59.721861,39.162851 60.662109,38.6875 60.849472,37.32207 60.926194,34.463648 59.076172,27.339844 53.62319,6.3423004 45.408203,0 45.408203,0 Z m -30.423828,13.683594 0.589844,0.443359 1.695312,-0.220703 4.277344,1.253906 c 0.442435,0.44247 0.737765,1.031223 0.958984,1.621094 l 1.105469,2.138672 c 0.147439,0.589909 0.294924,1.180577 0.589844,1.623047 l -0.589844,0.441406 -1.326172,4.792969 -0.517578,6.046875 0.148438,0.443359 v 0.441406 l 0.220703,0.589844 0.738281,1.47461 -0.369141,0.589843 -0.220703,2.507813 -1.107422,2.138672 -2.433593,0.810546 c -0.737394,-0.0737 -1.546759,-0.2947 -2.431641,-0.589843 -0.51617,-0.516133 -1.034127,-1.104891 -1.476562,-1.916016 l -0.957032,-2.287109 c 0.294992,-0.737424 0.516102,-1.549173 0.589844,-2.507813 l 0.367188,-0.589843 -0.367188,-1.916016 0.146484,-0.589844 -0.146484,-1.474609 -0.222656,-0.44336 0.222656,-0.220703 -0.222656,-1.474609 c -0.294992,0.0737 -0.588331,0.220077 -0.957032,0.441406 l -2.582031,0.664063 -2.0644529,-1.105469 -1.328125,-1.84375 C 6.9457602,24.30315 6.7256059,23.566504 6.578125,22.681641 l 1.3261719,-3.31836 2.0664062,-1.107422 1.4746089,-1.621093 c 0.589917,-0.442432 1.253314,-0.885252 2.064454,-1.253907 0.368693,-0.589946 0.884693,-1.179104 1.474609,-1.695312 z m 21.015625,0 c 0.811128,0.294803 1.69616,0.516623 2.728516,0.664062 l 0.810546,-0.220703 2.064454,0.369141 c 0.737397,0.221102 1.475493,0.589261 2.21289,1.105468 0.663655,0.368882 1.474028,0.811033 2.285156,1.179688 0.663659,0.589984 1.253834,1.180103 1.84375,1.84375 l 1.84375,1.697266 1.253907,2.210937 c 0.294992,0.737424 0.737252,1.549724 1.179687,2.287109 l 0.220703,2.064454 -0.220703,0.589843 c -0.07374,0.811087 -0.294919,1.694735 -0.589844,2.50586 -0.294992,0.663647 -0.737252,1.475542 -1.179687,2.21289 l -1.474609,2.064453 -1.84375,1.84375 -4.351563,2.654297 -2.431641,1.033203 -4.941406,1.03125 L 32.3125,40.230469 28.404297,37.134766 26.783203,35.068359 25.970703,32.414062 25.75,30.792969 25.970703,30.128906 c 0.07374,-1.03234 0.29492,-1.991539 0.589844,-3.097656 l 0.664062,-2.875 1.179688,-2.433594 c 0.294992,-0.663685 0.59076,-1.327067 1.033203,-2.064453 l 1.695312,-1.84375 C 31.501505,17.07703 32.092201,16.413685 32.755859,15.75 Z M 40.351562,21.5 c -0.294992,0.663685 -0.737724,1.181058 -1.253906,1.697266 l -1.402344,1.621093 c -0.589916,0.295181 -1.253837,0.66396 -1.84375,1.253907 l -1.03125,1.992187 -0.443359,2.285156 0.443359,2.285157 c 0.516182,0.442469 1.106357,0.738286 1.84375,1.033203 l 2.433594,-0.44336 c 0.663659,-0.221102 1.32706,-0.588818 2.064453,-1.03125 l 3.097657,-3.097656 c 0.368693,-0.589909 0.736292,-1.253329 1.03125,-2.064453 0.221215,-0.589909 0.36914,-1.401766 0.36914,-2.212891 l -1.033203,-2.064453 -1.84375,-1.03125 z"
       transform="matrix(0.26458333,0,0,0.26458333,79.844181,157.15988)"
       id="path839"
       inkscape:connector-curvature="0" />
  </g>
</svg>
