<?xml version="1.0" encoding="UTF-8" standalone="no"?>
<!-- Created with Inkscape (http://www.inkscape.org/) -->

<svg
   xmlns:dc="http://purl.org/dc/elements/1.1/"
   xmlns:cc="http://creativecommons.org/ns#"
   xmlns:rdf="http://www.w3.org/1999/02/22-rdf-syntax-ns#"
   xmlns:svg="http://www.w3.org/2000/svg"
   xmlns="http://www.w3.org/2000/svg"
   xmlns:sodipodi="http://sodipodi.sourceforge.net/DTD/sodipodi-0.dtd"
   xmlns:inkscape="http://www.inkscape.org/namespaces/inkscape"
   width="24.664341mm"
   height="18.559368mm"
   viewBox="0 0 24.664341 18.559368"
   version="1.1"
   id="svg8"
   sodipodi:docname="d100.svg"
   inkscape:version="0.92.4 (5da689c313, 2019-01-14)">
  <defs
     id="defs2" />
  <sodipodi:namedview
     id="base"
     pagecolor="#ffffff"
     bordercolor="#666666"
     borderopacity="1.0"
     inkscape:pageopacity="0.0"
     inkscape:pageshadow="2"
     inkscape:zoom="5.6568542"
     inkscape:cx="-20.161983"
     inkscape:cy="12.823443"
     inkscape:document-units="mm"
     inkscape:current-layer="layer1"
     showgrid="false"
     inkscape:window-width="2560"
     inkscape:window-height="1017"
     inkscape:window-x="-8"
     inkscape:window-y="-8"
     inkscape:window-maximized="1"
     fit-margin-top="0"
     fit-margin-left="0"
     fit-margin-right="0"
     fit-margin-bottom="0" />
  <metadata
     id="metadata5">
    <rdf:RDF>
      <cc:Work
         rdf:about="">
        <dc:format>image/svg+xml</dc:format>
        <dc:type
           rdf:resource="http://purl.org/dc/dcmitype/StillImage" />
        <dc:title></dc:title>
      </cc:Work>
    </rdf:RDF>
  </metadata>
  <g
     inkscape:label="Layer 1"
     inkscape:groupmode="layer"
     id="layer1"
     transform="translate(-98.973492,-172.12942)">
    <g
       id="g918"
       transform="translate(-18.142857,-3.3072917)">
      <g
         style="fill:#ffffff;fill-opacity:1;stroke:none;stroke-width:1;stroke-miterlimit:4;stroke-dasharray:none;stroke-opacity:1"
         inkscape:label="Layer 1"
         id="layer1-0"
         transform="rotate(-45.000001,99.343231,144.56756)" />
      <g
         id="g1005"
         transform="matrix(0.93766334,0,0,0.99729794,10.265445,1.9697955)">
        <g
           transform="rotate(-45.000001,95.316381,151.05571)"
           id="layer1-0-4"
           inkscape:label="Layer 1"
           style="stroke:none;stroke-width:1;stroke-miterlimit:4;stroke-dasharray:none;stroke-opacity:1">
          <path
             inkscape:export-ydpi="300"
             inkscape:export-xdpi="300"
             inkscape:export-filename="C:\Users\79c1\AppData\Local\FoundryVTT\Data\systems\icrpg\images\d6.png"
             sodipodi:nodetypes="cccscsssccccc"
             inkscape:connector-curvature="0"
             id="path839-6"
             d="m 82.359053,196.25541 c 0.04083,-0.25762 0.17312,-0.49489 0.29402,-0.52725 0.120876,-0.0324 0.127311,-0.26821 0.01433,-0.52406 -0.173705,-0.39338 0.245432,-1.261 2.715774,-5.62167 l 2.921184,-5.1565 1.373105,0.26755 c 1.898,0.36982 10.835024,5.10091 11.175474,5.91608 0.3897,0.93308 -0.65076,3.18441 -3.714798,8.03807 -2.605319,4.127 -2.8626,4.46254 -3.304092,4.30917 -0.263309,-0.0915 -0.644615,-0.43325 -0.847255,-0.75957 -0.293351,-0.4723 -1.069096,-0.92147 -3.805405,-2.20283 -7.024385,-3.29076 -6.903984,-3.22479 -6.822557,-3.73853 z"
             style="fill:#000000;stroke:none;stroke-width:0.26458332" />
        </g>
      </g>
      <g
         inkscape:label="Layer 1"
         id="layer1-0-3"
         transform="translate(41.338228,-9.2114386)"
         style="stroke:#ffffff;stroke-width:1;stroke-miterlimit:4;stroke-dasharray:none;stroke-opacity:1" />
      <g
         style="stroke:none;stroke-width:1;stroke-miterlimit:4;stroke-dasharray:none;stroke-opacity:1"
         transform="translate(40.849549,-8.9892158)"
         id="layer1-0-3-5"
         inkscape:label="Layer 1">
        <path
           inkscape:export-ydpi="300"
           inkscape:export-xdpi="300"
           inkscape:export-filename="C:\Users\79c1\AppData\Local\FoundryVTT\Data\systems\icrpg\images\d6.png"
           sodipodi:nodetypes="cccscsssccccc"
           inkscape:connector-curvature="0"
           id="path839-97"
           d="m 82.359053,196.25541 c 0.04083,-0.25762 0.17312,-0.49489 0.29402,-0.52725 0.120876,-0.0324 0.127311,-0.26821 0.01433,-0.52406 -0.173705,-0.39338 0.245432,-1.261 2.715774,-5.62167 l 2.921184,-5.1565 1.373105,0.26755 c 1.898,0.36982 10.835024,5.10091 11.175474,5.91608 0.3897,0.93308 -0.65076,3.18441 -3.714798,8.03807 -2.605319,4.127 -2.8626,4.46254 -3.304092,4.30917 -0.263309,-0.0915 -0.644615,-0.43325 -0.847255,-0.75957 -0.293351,-0.4723 -1.069096,-0.92147 -3.805405,-2.20283 -7.024385,-3.29076 -6.903984,-3.22479 -6.822557,-3.73853 z"
           style="fill:#000000;stroke:none;stroke-width:1;stroke-miterlimit:4;stroke-dasharray:none;stroke-opacity:1" />
      </g>
      <g
         aria-label="100"
         style="font-style:normal;font-variant:normal;font-weight:normal;font-stretch:normal;font-size:4.63020849px;line-height:125%;font-family:'Source Sans Pro';-inkscape-font-specification:'Source Sans Pro';text-align:start;letter-spacing:0px;word-spacing:0px;text-anchor:start;fill:#ffffff;fill-opacity:1;stroke:none;stroke-width:0.26458332px;stroke-linecap:butt;stroke-linejoin:miter;stroke-opacity:1"
         id="text825"
         transform="matrix(2.0299465,0,0,2.0299465,-139.52437,-190.21966)">
        <path
           d="m 128.32853,182.29565 0.0791,0.0588 0.23965,-0.0294 0.60817,0.17634 q 0.0904,0.104 0.13112,0.23739 l 0.16052,0.29617 q 0.0249,0.12661 0.0791,0.23513 l -0.0791,0.0588 -0.18765,0.68051 -0.0791,0.8546 0.0271,0.0588 v 0.061 l 0.0271,0.0882 0.10626,0.20574 -0.0543,0.0882 -0.0271,0.35495 -0.15825,0.29617 -0.34365,0.11757 q -0.16504,-0.0226 -0.34591,-0.0882 -0.11078,-0.10399 -0.21026,-0.26678 l -0.13339,-0.3233 q 0.061,-0.15826 0.0814,-0.35495 l 0.052,-0.0882 -0.052,-0.26678 0.0249,-0.0882 -0.0249,-0.208 -0.0271,-0.0588 0.0271,-0.0294 -0.0271,-0.20574 q -0.061,0.0113 -0.13339,0.0588 l -0.37078,0.0882 -0.29165,-0.14695 -0.18539,-0.26678 q -0.0769,-0.13791 -0.10626,-0.3233 l 0.18539,-0.47252 0.29165,-0.14921 0.21252,-0.23513 q 0.12209,-0.095 0.28939,-0.17861 0.0859,-0.11982 0.21478,-0.23513 z"
           style="font-style:normal;font-variant:normal;font-weight:normal;font-stretch:normal;font-family:nusaliver;-inkscape-font-specification:nusaliver;fill:#ffffff;fill-opacity:1;stroke-width:0.26458332px"
           id="path823"
           inkscape:connector-curvature="0" />
        <path
           d="m 131.29928,182.30018 q 0.17182,0.052 0.37756,0.0882 l 0.11756,-0.0294 0.28939,0.0565 q 0.16278,0.0452 0.31878,0.14695 0.14243,0.0904 0.32104,0.17409 0.13565,0.11304 0.26,0.26 l 0.26225,0.23286 0.17409,0.31878 q 0.0678,0.15826 0.17408,0.32104 l 0.0294,0.28939 -0.0294,0.0882 q -0.0203,0.17635 -0.0859,0.34817 -0.0723,0.156 -0.17408,0.31878 l -0.20348,0.29165 -0.26226,0.26 -0.61042,0.37982 -0.34817,0.14469 -0.69634,0.1447 -0.43635,-0.0882 -0.55164,-0.43408 -0.23287,-0.29165 -0.1153,-0.37756 -0.0294,-0.23286 0.0294,-0.0859 q 0.0226,-0.21704 0.0859,-0.43634 l 0.0882,-0.40695 0.17409,-0.34817 q 0.0543,-0.14243 0.14469,-0.28939 l 0.23287,-0.26226 q 0.0882,-0.15373 0.23287,-0.29165 z m 0.61043,1.10329 q -0.0656,0.13113 -0.17409,0.23286 l -0.20347,0.23287 q -0.12661,0.0588 -0.26226,0.17409 l -0.1447,0.28938 -0.0565,0.32104 0.0565,0.31878 q 0.11305,0.095 0.26226,0.1447 l 0.34817,-0.0565 q 0.13791,-0.052 0.28939,-0.14696 l 0.43634,-0.43408 q 0.0882,-0.12887 0.1447,-0.29165 0.0565,-0.13791 0.0588,-0.31878 l -0.1447,-0.29165 -0.26225,-0.14469 z"
           style="font-style:normal;font-variant:normal;font-weight:normal;font-stretch:normal;font-family:nusaliver;-inkscape-font-specification:nusaliver;fill:#ffffff;fill-opacity:1;stroke-width:0.26458332px"
           id="path825"
           inkscape:connector-curvature="0" />
        <path
           d="m 135.3688,182.30018 q 0.17182,0.052 0.37756,0.0882 l 0.11756,-0.0294 0.28939,0.0565 q 0.16278,0.0452 0.31878,0.14695 0.14243,0.0904 0.32104,0.17409 0.13565,0.11304 0.26,0.26 l 0.26225,0.23286 0.17409,0.31878 q 0.0678,0.15826 0.17408,0.32104 l 0.0294,0.28939 -0.0294,0.0882 q -0.0203,0.17635 -0.0859,0.34817 -0.0724,0.156 -0.17408,0.31878 l -0.20348,0.29165 -0.26226,0.26 -0.61042,0.37982 -0.34817,0.14469 -0.69634,0.1447 -0.43635,-0.0882 -0.55164,-0.43408 -0.23287,-0.29165 -0.1153,-0.37756 -0.0294,-0.23286 0.0294,-0.0859 q 0.0226,-0.21704 0.0859,-0.43634 l 0.0882,-0.40695 0.17409,-0.34817 q 0.0543,-0.14243 0.14469,-0.28939 l 0.23287,-0.26226 q 0.0882,-0.15373 0.23286,-0.29165 z m 0.61043,1.10329 q -0.0656,0.13113 -0.17409,0.23286 l -0.20348,0.23287 q -0.1266,0.0588 -0.26225,0.17409 l -0.1447,0.28938 -0.0565,0.32104 0.0565,0.31878 q 0.11304,0.095 0.26226,0.1447 l 0.34817,-0.0565 q 0.13791,-0.052 0.28939,-0.14696 l 0.43634,-0.43408 q 0.0882,-0.12887 0.1447,-0.29165 0.0565,-0.13791 0.0588,-0.31878 l -0.1447,-0.29165 -0.26225,-0.14469 z"
           style="font-style:normal;font-variant:normal;font-weight:normal;font-stretch:normal;font-family:nusaliver;-inkscape-font-specification:nusaliver;fill:#ffffff;fill-opacity:1;stroke-width:0.26458332px"
           id="path827"
           inkscape:connector-curvature="0" />
      </g>
    </g>
  </g>
</svg>
