<?xml version="1.0" encoding="UTF-8" standalone="no"?>
<!-- Created with Inkscape (http://www.inkscape.org/) -->

<svg
   xmlns:dc="http://purl.org/dc/elements/1.1/"
   xmlns:cc="http://creativecommons.org/ns#"
   xmlns:rdf="http://www.w3.org/1999/02/22-rdf-syntax-ns#"
   xmlns:svg="http://www.w3.org/2000/svg"
   xmlns="http://www.w3.org/2000/svg"
   xmlns:sodipodi="http://sodipodi.sourceforge.net/DTD/sodipodi-0.dtd"
   xmlns:inkscape="http://www.inkscape.org/namespaces/inkscape"
   width="24.682964mm"
   height="16.700672mm"
   viewBox="0 0 24.682964 16.700672"
   version="1.1"
   id="svg8"
   sodipodi:docname="d100.svg"
   inkscape:version="0.92.4 (5da689c313, 2019-01-14)">
  <defs
     id="defs2">
    <pattern
       y="0"
       x="0"
       height="6"
       width="6"
       patternUnits="userSpaceOnUse"
       id="EMFhbasepattern" />
  </defs>
  <sodipodi:namedview
     id="base"
     pagecolor="#ffffff"
     bordercolor="#666666"
     borderopacity="1.0"
     inkscape:pageopacity="0.0"
     inkscape:pageshadow="2"
     inkscape:zoom="2.8284271"
     inkscape:cx="4.8504027"
     inkscape:cy="23.426259"
     inkscape:document-units="mm"
     inkscape:current-layer="layer1"
     showgrid="false"
     inkscape:window-width="1144"
     inkscape:window-height="762"
     inkscape:window-x="27"
     inkscape:window-y="113"
     inkscape:window-maximized="0"
     fit-margin-top="0"
     fit-margin-left="0"
     fit-margin-right="0"
     fit-margin-bottom="0" />
  <metadata
     id="metadata5">
    <rdf:RDF>
      <cc:Work
         rdf:about="">
        <dc:format>image/svg+xml</dc:format>
        <dc:type
           rdf:resource="http://purl.org/dc/dcmitype/StillImage" />
        <dc:title></dc:title>
      </cc:Work>
    </rdf:RDF>
  </metadata>
  <g
     inkscape:label="Layer 1"
     inkscape:groupmode="layer"
     id="layer1"
     transform="translate(-98.895299,-172.45197)">
    <path
       style="fill:#000000;fill-opacity:1;fill-rule:nonzero;stroke:none;stroke-width:0.99999994"
       d="m 55.539062,0 c 0,0 -2.842895,2.8128546 -6.53125,6.6464844 C 46.909412,3.7456846 45.439453,2.59375 45.439453,2.59375 c 0,0 -38.2403628,4.2395035 -40.3203124,9.439453 L 0,23.953125 c 3.9199748,15.599887 15.679688,35.521484 15.679688,35.521484 11.733447,-1.944403 20.886209,-3.529516 31.699218,-5.582031 10.196271,5.44798 19.853516,9.228516 19.853516,9.228516 C 76.815452,52.654675 83.722909,44.99932 92.996094,34.267578 94.263596,33.679899 91.000503,22.002875 91.396484,21.082031 90.745914,19.86389 89.032163,17.549644 83.126953,13.132812 65.860597,-0.06333238 55.539062,0 55.539062,0 Z m -39.558593,15.623047 0.58789,0.4375 1.78125,-0.21875 4.517579,1.310547 c 0.447748,0.515124 0.772933,1.102985 0.974609,1.763672 l 1.193359,2.201172 c 0.123465,0.627099 0.317616,1.208594 0.585938,1.746093 l -0.585938,0.4375 -1.394531,5.054688 -0.587891,6.349609 0.201172,0.4375 v 0.453125 l 0.201172,0.654297 0.789063,1.529297 -0.402344,0.654297 -0.201172,2.638672 -1.175781,2.199218 -2.554688,0.873047 c -0.817411,-0.111874 -1.67251,-0.329333 -2.568359,-0.654297 -0.548712,-0.515074 -1.069776,-1.176122 -1.5625,-1.982422 l -0.992188,-2.402343 c 0.302161,-0.783849 0.50443,-1.662508 0.605469,-2.636719 l 0.386719,-0.654297 -0.386719,-1.982422 0.185547,-0.65625 -0.185547,-1.544922 -0.201172,-0.4375 0.201172,-0.21875 -0.201172,-1.527343 c -0.302135,0.05594 -0.631708,0.202186 -0.990234,0.4375 L 11.445312,30.539062 9.2792969,29.447266 7.9023438,27.464844 C 7.5214682,26.781782 7.2567391,25.980749 7.1113281,25.0625 l 1.3789063,-3.509766 2.1660156,-1.109375 1.578125,-1.746093 c 0.604724,-0.470526 1.321767,-0.912037 2.150391,-1.326172 0.425448,-0.593462 0.957341,-1.176935 1.595703,-1.748047 z m 22.072265,0.03516 c 0.851024,0.257562 1.785652,0.474971 2.804688,0.654297 l 0.873047,-0.21875 2.15039,0.419922 c 0.806274,0.223748 1.59648,0.587734 2.369141,1.091797 0.705461,0.447773 1.500129,0.878455 2.384766,1.292969 0.671874,0.559899 1.315728,1.203779 1.93164,1.93164 l 1.947266,1.730469 1.294922,2.369141 c 0.335823,0.783848 0.766581,1.578516 1.292968,2.384765 l 0.21875,2.150391 -0.21875,0.654297 c -0.100535,0.873474 -0.313758,1.736867 -0.638671,2.58789 -0.358098,0.772662 -0.788831,1.560914 -1.292969,2.367188 l -1.511719,2.167969 -1.949219,1.93164 -4.535156,2.820313 -2.585937,1.076171 -5.173829,1.074219 -3.242187,-0.654297 -4.097656,-3.224609 -1.730469,-2.167969 -0.857422,-2.804687 -0.216797,-1.730469 0.216797,-0.638672 c 0.111874,-1.074973 0.325097,-2.154023 0.638672,-3.240234 l 0.65625,-3.023438 1.292969,-2.58789 c 0.268951,-0.705462 0.626521,-1.422504 1.074219,-2.150391 l 1.730468,-1.947266 c 0.436863,-0.761448 1.013921,-1.484882 1.730469,-2.167968 z m 30.234375,0 c 0.851024,0.257562 1.785652,0.474971 2.804688,0.654297 l 0.873047,-0.21875 2.15039,0.419922 c 0.806249,0.223748 1.596454,0.587734 2.369141,1.091797 0.705436,0.447773 1.500129,0.878455 2.384766,1.292969 0.671874,0.559899 1.315728,1.203779 1.93164,1.93164 l 1.947266,1.730469 1.294922,2.369141 c 0.335849,0.783848 0.766581,1.578516 1.292969,2.384765 l 0.21875,2.150391 -0.21875,0.654297 c -0.100536,0.873474 -0.313734,1.736867 -0.638672,2.58789 -0.358577,0.772662 -0.789334,1.560914 -1.292969,2.367188 l -1.511719,2.167969 -1.949219,1.93164 -4.535156,2.820313 -2.585937,1.076171 -5.173828,1.074219 -3.242188,-0.654297 -4.097656,-3.224609 -1.730469,-2.167969 -0.857422,-2.804687 -0.216797,-1.730469 0.216797,-0.638672 c 0.111874,-1.074973 0.325072,-2.154023 0.638672,-3.240234 l 0.65625,-3.023438 1.292969,-2.58789 c 0.268951,-0.705462 0.626521,-1.422504 1.074218,-2.150391 l 1.730469,-1.947266 c 0.436838,-0.761448 1.013971,-1.484882 1.730469,-2.167968 z m -25.699218,8.195313 c -0.324914,0.649474 -0.755621,1.226607 -1.292969,1.730468 l -1.511719,1.730469 c -0.627099,0.291251 -1.277345,0.721907 -1.949219,1.292969 l -1.076172,2.15039 -0.417968,2.384766 0.417968,2.369141 c 0.559975,0.470526 1.210221,0.828045 1.949219,1.074219 l 2.587891,-0.419922 c 0.683086,-0.257537 1.398176,-0.621473 2.148437,-1.091797 l 3.242188,-3.22461 c 0.436863,-0.638311 0.796336,-1.359766 1.076172,-2.166015 0.279836,-0.683087 0.424132,-1.473317 0.435547,-2.369141 l -1.074219,-2.166015 -1.949219,-1.076172 z m 30.234375,0 c -0.324914,0.649474 -0.755596,1.226607 -1.292969,1.730468 l -1.511719,1.730469 c -0.627049,0.291251 -1.277345,0.721907 -1.949219,1.292969 l -1.074218,2.15039 -0.419922,2.384766 0.419922,2.369141 c 0.559899,0.470526 1.208166,0.828045 1.947265,1.074219 l 2.587891,-0.419922 c 0.683086,-0.257537 1.398151,-0.621473 2.148437,-1.091797 l 3.242188,-3.22461 c 0.436838,-0.638311 0.796336,-1.359766 1.076172,-2.166015 0.279861,-0.683087 0.424158,-1.473317 0.435547,-2.369141 l -1.074219,-2.166015 -1.949219,-1.076172 z"
       transform="matrix(0.26458333,0,0,0.26458333,98.895299,172.45197)"
       id="path839"
       inkscape:connector-curvature="0" />
  </g>
</svg>
