<?xml version="1.0" encoding="UTF-8" standalone="no"?>
<!-- Created with Inkscape (http://www.inkscape.org/) -->

<svg
   xmlns:dc="http://purl.org/dc/elements/1.1/"
   xmlns:cc="http://creativecommons.org/ns#"
   xmlns:rdf="http://www.w3.org/1999/02/22-rdf-syntax-ns#"
   xmlns:svg="http://www.w3.org/2000/svg"
   xmlns="http://www.w3.org/2000/svg"
   xmlns:sodipodi="http://sodipodi.sourceforge.net/DTD/sodipodi-0.dtd"
   xmlns:inkscape="http://www.inkscape.org/namespaces/inkscape"
   width="26.147326mm"
   height="30.049538mm"
   viewBox="0 0 26.147327 30.049538"
   version="1.1"
   id="svg8"
   inkscape:version="0.92.4 (5da689c313, 2019-01-14)"
   sodipodi:docname="death-d4.svg">
  <defs
     id="defs2" />
  <sodipodi:namedview
     id="base"
     pagecolor="#ffffff"
     bordercolor="#666666"
     borderopacity="1.0"
     inkscape:pageopacity="0.0"
     inkscape:pageshadow="2"
     inkscape:zoom="2.8284271"
     inkscape:cx="49.566037"
     inkscape:cy="58.46454"
     inkscape:document-units="mm"
     inkscape:current-layer="layer1"
     showgrid="false"
     fit-margin-top="0"
     fit-margin-left="0"
     fit-margin-right="0"
     fit-margin-bottom="0"
     inkscape:window-width="836"
     inkscape:window-height="570"
     inkscape:window-x="357"
     inkscape:window-y="124"
     inkscape:window-maximized="0" />
  <metadata
     id="metadata5">
    <rdf:RDF>
      <cc:Work
         rdf:about="">
        <dc:format>image/svg+xml</dc:format>
        <dc:type
           rdf:resource="http://purl.org/dc/dcmitype/StillImage" />
        <dc:title></dc:title>
      </cc:Work>
    </rdf:RDF>
  </metadata>
  <g
     inkscape:label="Layer 1"
     inkscape:groupmode="layer"
     id="layer1"
     transform="translate(-83.456477,-149.67091)">
    <path
       id="path839-1"
       style="fill:#000000;fill-opacity:1;stroke-width:0.20362633"
       d="m 97.108181,157.64408 c 0.352312,-0.25764 0.361648,-0.35182 0.110318,-1.11336 -0.206803,-0.62663 -0.217238,-0.90096 -0.04224,-1.11177 0.127756,-0.15394 0.182806,-0.32934 0.12234,-0.38983 -0.06049,-0.0606 -0.220022,-0.55493 -0.354574,-1.09882 -0.165421,-0.66866 -0.36321,-1.01161 -0.610771,-1.059 -0.563009,-0.10768 -0.957443,0.34885 -0.957443,1.10842 0,0.59785 -0.06656,0.68775 -0.509068,0.68775 -0.623348,0 -0.630073,-0.14729 -0.06024,-1.32018 0.418972,-0.86236 0.426244,-0.94641 0.109329,-1.26331 -0.735857,-0.73586 -1.887886,0.56326 -2.135311,2.40795 -0.09994,0.74504 -0.06811,0.80042 0.627581,1.09108 0.403077,0.16843 1.002649,0.30622 1.332381,0.30622 0.540748,0 0.613014,0.0798 0.737112,0.81441 0.188055,1.11306 0.862543,1.50207 1.63063,0.94044 z m -7.84628,0.91717 c -0.140981,-0.3674 0.339573,-1.28942 2.04369,-3.92115 0.809046,-1.24943 1.758749,-2.87875 2.110453,-3.62072 l 0.639455,-1.34902 0.773428,0.11226 c 0.425385,0.0618 0.778536,0.12118 0.784773,0.13204 0.0062,0.0108 0.357291,0.52218 0.780112,1.13622 0.422814,0.61404 1.195666,1.96806 1.717444,3.00895 0.52178,1.04088 1.17473,2.27589 1.451017,2.74446 0.568847,0.96478 0.630367,1.40289 0.21914,1.56069 -0.15577,0.0598 -0.977223,0.0598 -1.82547,-1e-4 -0.857753,-0.0605 -2.190437,-0.0317 -3.002642,0.065 -0.803209,0.0956 -2.3896,0.22359 -3.525316,0.28438 -1.820555,0.0974 -2.076913,0.0793 -2.166084,-0.15306 z m 10.304409,20.98404 c -0.3638,-0.15084 -1.05397,-0.69862 -1.53371,-1.21729 -0.76011,-0.82178 -0.98123,-0.92072 -1.719801,-0.76952 -2.94968,0.60386 -6.26277,0.41945 -9.62344,-0.53565 -1.46066,-0.41512 -2.8519,-1.68516 -3.15088,-2.87637 -0.20512,-0.81727 -0.0221,-3.04493 0.5117,-6.23005 0.73579,-4.38997 2.85592,-7.84017 5.65447,-9.20185 0.564591,-0.27471 0.7728,-0.51331 0.61444,-0.70413 l 8.71809,0.0789 1.456351,0.42337 c 1.88068,0.54673 4.32524,2.8554 5.31681,5.02127 0.58487,1.27753 0.66908,1.78549 0.59966,3.61736 -0.0775,2.04461 -0.0531,2.14788 0.59933,2.54377 0.79611,0.48306 2.28088,2.85388 2.51247,4.0118 0.26709,1.33547 -0.0853,2.03953 -1.54635,3.08915 -3.00054,2.15568 -6.82507,3.40608 -8.409141,2.74928 z m 2.07416,-1.80743 c 0.19491,-0.12354 0.31764,-0.50867 0.27275,-0.85585 -0.13834,-1.06985 0.21314,-1.35064 1.11008,-0.88681 0.58703,0.30356 0.9122,0.33378 1.30864,0.12161 0.52323,-0.28002 0.52283,-0.28867 -0.0497,-1.06311 -0.31749,-0.42943 -0.48749,-0.87055 -0.37777,-0.98027 0.10972,-0.10972 0.31225,0.002 0.45006,0.24827 0.46443,0.82988 1.06663,1.26762 1.74385,1.26762 0.57044,0 0.65462,-0.0983 0.55051,-0.64287 -0.0967,-0.50573 0.01,-0.67614 0.49833,-0.79879 0.34167,-0.0858 0.62121,-0.34056 0.62121,-0.56623 0,-0.53701 -1.44029,-2.62149 -2.15934,-3.12514 -1.00962,-0.70716 -1.51359,-1.72624 -1.27137,-2.57081 0.25499,-0.88908 0.27437,-0.879 -0.70623,-0.36758 -0.98406,0.51322 -2.46953,0.50704 -3.21252,-0.0134 -0.469031,-0.32852 -0.58804,-0.66936 -0.58804,-1.68411 0,-1.67833 0.70144,-2.60465 2.05749,-2.7171 l 0.98522,-0.0817 -0.92604,-0.58921 c -0.50932,-0.32407 -1.35198,-0.87835 -1.87257,-1.23173 -1.29497,-0.87904 -2.67244,-1.21855 -4.950991,-1.2203 -1.40887,-10e-4 -2.208359,0.14116 -2.966019,0.52769 -0.570491,0.29105 -1.286041,0.52917 -1.5901,0.52917 -1.092951,0 -2.147451,0.80195 -2.701501,2.05449 -0.46048,1.04097 -0.516239,1.54628 -0.374339,3.39228 0.165359,2.15128 0.1613,2.17047 -0.49408,2.33496 -0.59695,0.14982 -0.660811,0.29664 -0.660811,1.51918 0,2.83847 1.09448,4.72201 2.743851,4.72201 1.259389,0 1.754059,-0.23183 1.754059,-0.82206 0,-0.33683 -0.19496,-0.5077 -0.595309,-0.52175 -0.402031,-0.0141 -0.466461,-0.071 -0.198441,-0.17521 0.21828,-0.0849 0.515941,-0.31563 0.66146,-0.51278 0.203681,-0.27594 0.557221,-0.30374 1.53602,-0.12078 1.466721,0.27416 3.06764,-0.009 4.36685,-0.77304 0.481691,-0.28319 0.795981,-0.38573 0.698421,-0.22788 -0.2414,0.3906 2.20626,5.20094 2.89016,5.67996 0.62483,0.43765 0.94204,0.47082 1.44625,0.15124 z m -0.93916,-4.97442 c -0.3007,-0.45893 -0.46626,-1.22927 -0.46912,-2.18281 -0.004,-1.46507 4.8e-4,-1.47407 0.84132,-1.55545 0.72733,-0.0704 0.93972,0.0601 1.51691,0.93234 0.52643,0.79548 0.64246,1.2384 0.53805,2.05387 -0.0732,0.57182 -0.27957,1.13271 -0.45857,1.24642 -0.66333,0.42137 -1.50747,0.20938 -1.96859,-0.49437 z m -7.159841,-2.1137 c -0.625799,-0.25179 -1.174819,-1.69089 -1.000199,-2.62172 0.298959,-1.59358 1.81409,-2.32105 3.50209,-1.68149 2.003039,0.75893 2.5059,2.36304 1.16205,3.7069 -0.65029,0.65028 -0.97669,0.77007 -2.05052,0.75251 -0.70242,-0.0115 -1.428451,-0.0818 -1.613421,-0.1562 z"
       inkscape:connector-curvature="0" />
  </g>
</svg>
