<?xml version="1.0" encoding="UTF-8" standalone="no"?>
<!-- Created with Inkscape (http://www.inkscape.org/) -->

<svg
   xmlns:dc="http://purl.org/dc/elements/1.1/"
   xmlns:cc="http://creativecommons.org/ns#"
   xmlns:rdf="http://www.w3.org/1999/02/22-rdf-syntax-ns#"
   xmlns:svg="http://www.w3.org/2000/svg"
   xmlns="http://www.w3.org/2000/svg"
   xmlns:sodipodi="http://sodipodi.sourceforge.net/DTD/sodipodi-0.dtd"
   xmlns:inkscape="http://www.inkscape.org/namespaces/inkscape"
   width="26.147326mm"
   height="30.049538mm"
   viewBox="0 0 26.147327 30.049538"
   version="1.1"
   id="svg8"
   inkscape:version="0.92.4 (5da689c313, 2019-01-14)"
   sodipodi:docname="death.svg">
  <defs
     id="defs2" />
  <sodipodi:namedview
     id="base"
     pagecolor="#ffffff"
     bordercolor="#666666"
     borderopacity="1.0"
     inkscape:pageopacity="0.0"
     inkscape:pageshadow="2"
     inkscape:zoom="1.979899"
     inkscape:cx="51.400106"
     inkscape:cy="81.852255"
     inkscape:document-units="mm"
     inkscape:current-layer="layer1"
     showgrid="false"
     fit-margin-top="0"
     fit-margin-left="0"
     fit-margin-right="0"
     fit-margin-bottom="0"
     inkscape:window-width="836"
     inkscape:window-height="519"
     inkscape:window-x="636"
     inkscape:window-y="219"
     inkscape:window-maximized="0" />
  <metadata
     id="metadata5">
    <rdf:RDF>
      <cc:Work
         rdf:about="">
        <dc:format>image/svg+xml</dc:format>
        <dc:type
           rdf:resource="http://purl.org/dc/dcmitype/StillImage" />
        <dc:title></dc:title>
      </cc:Work>
    </rdf:RDF>
  </metadata>
  <g
     inkscape:label="Layer 1"
     inkscape:groupmode="layer"
     id="layer1"
     transform="translate(-83.456477,-149.67091)">
    <path
       style="fill:#000000;stroke-width:0.26458332"
       d="m 99.56631,179.54529 c -0.3638,-0.15084 -1.05397,-0.69862 -1.53371,-1.21729 -0.76011,-0.82178 -0.98123,-0.92072 -1.719801,-0.76952 -2.94968,0.60386 -6.26277,0.41945 -9.62344,-0.53565 -1.46066,-0.41512 -2.8519,-1.68516 -3.15088,-2.87637 -0.20512,-0.81727 -0.0221,-3.04493 0.5117,-6.23005 0.73579,-4.38997 2.85592,-7.84017 5.65447,-9.20185 0.564591,-0.27471 0.7728,-0.51331 0.61444,-0.70413 -0.13174,-0.15874 -0.266929,-1.94674 -0.30041,-3.97332 l -0.0609,-3.68471 0.901639,-0.32599 c 1.2533,-0.45313 7.80704,-0.48189 8.095931,-0.0355 0.11773,0.1819 0.1843,2.07845 0.14793,4.21456 l -0.0661,3.88384 1.456351,0.42337 c 1.88068,0.54673 4.32524,2.8554 5.31681,5.02127 0.58487,1.27753 0.66908,1.78549 0.59966,3.61736 -0.0775,2.04461 -0.0531,2.14788 0.59933,2.54377 0.79611,0.48306 2.28088,2.85388 2.51247,4.0118 0.26709,1.33547 -0.0853,2.03953 -1.54635,3.08915 -3.00054,2.15568 -6.82507,3.40608 -8.409141,2.74928 z m 2.07416,-1.80743 c 0.19491,-0.12354 0.31764,-0.50867 0.27275,-0.85585 -0.13834,-1.06985 0.21314,-1.35064 1.11008,-0.88681 0.58703,0.30356 0.9122,0.33378 1.30864,0.12161 0.52323,-0.28002 0.52283,-0.28867 -0.0497,-1.06311 -0.31749,-0.42943 -0.48749,-0.87055 -0.37777,-0.98027 0.10972,-0.10972 0.31225,0.002 0.45006,0.24827 0.46443,0.82988 1.06663,1.26762 1.74385,1.26762 0.57044,0 0.65462,-0.0983 0.55051,-0.64287 -0.0967,-0.50573 0.01,-0.67614 0.49833,-0.79879 0.34167,-0.0858 0.62121,-0.34056 0.62121,-0.56623 0,-0.53701 -1.44029,-2.62149 -2.15934,-3.12514 -1.00962,-0.70716 -1.51359,-1.72624 -1.27137,-2.57081 0.25499,-0.88908 0.27437,-0.879 -0.70623,-0.36758 -0.98406,0.51322 -2.46953,0.50704 -3.21252,-0.0134 -0.469031,-0.32852 -0.58804,-0.66936 -0.58804,-1.68411 0,-1.67833 0.70144,-2.60465 2.05749,-2.7171 l 0.98522,-0.0817 -0.92604,-0.58921 c -0.50932,-0.32407 -1.35198,-0.87835 -1.87257,-1.23173 -1.29497,-0.87904 -2.67244,-1.21855 -4.950991,-1.2203 -1.40887,-10e-4 -2.208359,0.14116 -2.966019,0.52769 -0.570491,0.29105 -1.286041,0.52917 -1.5901,0.52917 -1.092951,0 -2.147451,0.80195 -2.701501,2.05449 -0.46048,1.04097 -0.516239,1.54628 -0.374339,3.39228 0.165359,2.15128 0.1613,2.17047 -0.49408,2.33496 -0.59695,0.14982 -0.660811,0.29664 -0.660811,1.51918 0,2.83847 1.09448,4.72201 2.743851,4.72201 1.259389,0 1.754059,-0.23183 1.754059,-0.82206 0,-0.33683 -0.19496,-0.5077 -0.595309,-0.52175 -0.402031,-0.0141 -0.466461,-0.071 -0.198441,-0.17521 0.21828,-0.0849 0.515941,-0.31563 0.66146,-0.51278 0.203681,-0.27594 0.557221,-0.30374 1.53602,-0.12078 1.466721,0.27416 3.06764,-0.009 4.36685,-0.77304 0.481691,-0.28319 0.795981,-0.38573 0.698421,-0.22788 -0.2414,0.3906 2.20626,5.20094 2.89016,5.67996 0.62483,0.43765 0.94204,0.47082 1.44625,0.15124 z m -0.93916,-4.97442 c -0.3007,-0.45893 -0.46626,-1.22927 -0.46912,-2.18281 -0.004,-1.46507 4.8e-4,-1.47407 0.84132,-1.55545 0.72733,-0.0704 0.93972,0.0601 1.51691,0.93234 0.52643,0.79548 0.64246,1.2384 0.53805,2.05387 -0.0732,0.57182 -0.27957,1.13271 -0.45857,1.24642 -0.66333,0.42137 -1.50747,0.20938 -1.96859,-0.49437 z m -7.159841,-2.1137 c -0.625799,-0.25179 -1.174819,-1.69089 -1.000199,-2.62172 0.298959,-1.59358 1.81409,-2.32105 3.50209,-1.68149 2.003039,0.75893 2.5059,2.36304 1.16205,3.7069 -0.65029,0.65028 -0.97669,0.77007 -2.05052,0.75251 -0.70242,-0.0115 -1.428451,-0.0818 -1.613421,-0.1562 z m 2.598401,-14.51409 c 1.54836,-0.80069 0.58507,-2.92995 -1.229691,-2.71808 -0.55259,0.0645 -0.900119,-0.01 -0.900119,-0.19255 0,-0.42123 1.09347,-1.37775 1.70098,-1.48793 0.82995,-0.15052 0.61863,-0.61493 -0.320941,-0.70531 -2.26657,-0.21802 -4.140909,4.11621 -2.2546,5.21356 0.69685,0.40539 2.107941,0.35387 3.004371,-0.10969 z m -2.06992,-0.61077 c -0.46521,-0.297 0.56348,-1.22422 1.12088,-1.01032 0.43469,0.1668 0.570209,0.96643 0.16379,0.96643 -0.133621,0 -0.40151,0.0583 -0.595321,0.12951 -0.193799,0.0712 -0.504009,0.0327 -0.689349,-0.0856 z"
       id="path936-0"
       inkscape:connector-curvature="0"
       inkscape:export-filename="C:\Users\79c1\AppData\Local\FoundryVTT\Data\systems\icrpg\images\death.png"
       inkscape:export-xdpi="300"
       inkscape:export-ydpi="300"
       sodipodi:nodetypes="ccssccsccccccccccccccccccccscsccsccccsscccccscscsssccccccccccccccccccccccccsccccccsccc" />
  </g>
</svg>
